<mxfile host="app.diagrams.net" modified="2024-01-24T09:13:45.878Z" agent="Mozilla/5.0 (Windows NT 10.0; Win64; x64) AppleWebKit/537.36 (KHTML, like Gecko) Chrome/120.0.0.0 Safari/537.36" version="23.0.0" etag="01IG1Cxkf_F2Do-2uWZP" type="github">
  <diagram name="Sida-1" id="yvDOUg8r-f1I4mLXPEEP">
    <mxGraphModel>
      <root>
        <mxCell id="0" />
        <mxCell id="1" parent="0" />
      </root>
    </mxGraphModel>
  </diagram>
</mxfile>
